<?xml version="1.0" encoding="utf-8"?>
<svg version="1.1" xmlns="http://www.w3.org/2000/svg" xmlns:xlink="http://www.w3.org/1999/xlink" x="0px" y="0px"
	 viewBox="0 0 198.4 37" style="enable-background:new 0 0 198.4 37;" xml:space="preserve">
<path d="M82.4,33.6c-0.1,0-10.5-3-25.8-4.4c-0.8-7.3-7-13-14.5-13c-7.5,0-13.7,5.7-14.5,13c-15.4,1.4-25.9,4.4-26,4.4
	c-0.8,0.2-1.2,1.1-1,1.9c0.2,0.8,1.1,1.3,1.9,1c0.2,0,17.1-4.9,39.6-4.9c22.5,0,39.4,4.9,39.5,4.9c0.1,0,0.3,0.1,0.4,0.1
	c0.6,0,1.2-0.4,1.4-1.1C83.7,34.6,83.2,33.8,82.4,33.6z M42,28.5c-4,0-7.8,0.2-11.4,0.4c0.8-6,5.6-9.7,11.4-9.7
	c5.8,0,10.6,3.8,11.4,9.7C49.9,28.7,46.1,28.5,42,28.5z M42.1,11.1c0.8,0,1.5-0.7,1.5-1.5V1.5c0-0.8-0.7-1.5-1.5-1.5
	c-0.8,0-1.5,0.7-1.5,1.5v8.1C40.5,10.4,41.2,11.1,42.1,11.1z M29.7,13.4c0.3,0.5,0.8,0.8,1.3,0.8c0.3,0,0.5-0.1,0.8-0.2
	c0.7-0.4,1-1.3,0.6-2.1l-4-7c-0.4-0.7-1.3-1-2.1-0.6c-0.7,0.4-1,1.3-0.6,2.1L29.7,13.4z M14.9,19l7,4c0.2,0.1,0.5,0.2,0.8,0.2
	c0.5,0,1-0.3,1.3-0.8c0.4-0.7,0.2-1.7-0.6-2.1l-7-4c-0.7-0.4-1.6-0.2-2.1,0.6C14,17.6,14.2,18.5,14.9,19z M53.2,13.9
	c0.2,0.1,0.5,0.2,0.8,0.2c0.5,0,1-0.3,1.3-0.8l4-7c0.4-0.7,0.2-1.7-0.6-2.1c-0.7-0.4-1.6-0.2-2.1,0.6l-4,7
	C52.2,12.6,52.5,13.5,53.2,13.9z M62.3,23.2c0.3,0,0.5-0.1,0.8-0.2l7-4c0.7-0.4,1-1.3,0.6-2.1c-0.4-0.7-1.3-1-2.1-0.6l-7,4
	c-0.7,0.4-1,1.3-0.6,2.1C61.2,22.9,61.7,23.2,62.3,23.2z M175.4,22.2c0.4-0.2,0.6-0.6,0.6-1.3c0-0.7-0.2-1.4-0.6-2.1
	s-0.9-1.3-1.7-1.7s-1.6-0.7-2.7-0.7c-0.8,0-1.5,0.1-2.2,0.4s-1.2,0.6-1.7,1.1s-0.8,1.1-1,1.7s-0.4,1.4-0.4,2.2c0,1.7,0.5,3,1.4,4
	s2.3,1.5,4,1.5c0.7,0,1.4-0.1,2-0.3s1.1-0.4,1.4-0.7s0.7-0.6,0.9-0.9s0.3-0.6,0.3-0.8c0-0.3-0.1-0.5-0.3-0.6s-0.4-0.2-0.7-0.2
	c-0.3,0-0.4,0.1-0.6,0.2c-0.3,0.3-0.6,0.6-0.8,0.7s-0.4,0.4-0.7,0.5s-0.5,0.3-0.8,0.4s-0.6,0.1-0.9,0.1c-0.5,0-0.9-0.1-1.3-0.4
	s-0.7-0.6-0.9-1s-0.4-1-0.4-1.6h5.2C174.5,22.5,175.1,22.4,175.4,22.2z M168.6,21c0.1-0.9,0.4-1.6,0.8-2s1-0.7,1.6-0.7
	c0.7,0,1.3,0.2,1.7,0.7s0.7,1.1,0.7,2H168.6z M156.8,12.4c-0.4,0-0.7,0.1-1,0.4s-0.4,0.7-0.4,1.2v11.6c0,0.5,0.1,0.9,0.4,1.2
	s0.6,0.4,1,0.4c0.4,0,0.7-0.1,1-0.4s0.4-0.7,0.4-1.2V14.1c0-0.5-0.1-0.9-0.4-1.2S157.2,12.4,156.8,12.4z M152.6,22.2
	c0.4-0.2,0.6-0.6,0.6-1.3c0-0.7-0.2-1.4-0.6-2.1s-0.9-1.3-1.7-1.7s-1.6-0.7-2.7-0.7c-0.8,0-1.5,0.1-2.2,0.4s-1.2,0.6-1.7,1.1
	s-0.8,1.1-1,1.7s-0.4,1.4-0.4,2.2c0,1.7,0.5,3,1.4,4s2.3,1.5,4,1.5c0.7,0,1.4-0.1,2-0.3s1.1-0.4,1.4-0.7s0.7-0.6,0.9-0.9
	s0.3-0.6,0.3-0.8c0-0.3-0.1-0.5-0.3-0.6s-0.4-0.2-0.7-0.2c-0.3,0-0.4,0.1-0.6,0.2c-0.3,0.3-0.6,0.6-0.8,0.7s-0.4,0.4-0.7,0.5
	s-0.5,0.3-0.8,0.4s-0.6,0.1-0.9,0.1c-0.5,0-0.9-0.1-1.3-0.4s-0.7-0.6-0.9-1s-0.4-1-0.4-1.6h5.2C151.7,22.5,152.2,22.4,152.6,22.2z
	 M145.8,21c0.1-0.9,0.4-1.6,0.8-2s1-0.7,1.6-0.7c0.7,0,1.3,0.2,1.7,0.7s0.7,1.1,0.7,2H145.8z M122.8,22.2c0.4-0.2,0.6-0.6,0.6-1.3
	c0-0.7-0.2-1.4-0.6-2.1s-0.9-1.3-1.7-1.7s-1.6-0.7-2.7-0.7c-0.8,0-1.5,0.1-2.2,0.4s-1.2,0.6-1.7,1.1s-0.8,1.1-1,1.7
	s-0.4,1.4-0.4,2.2c0,1.7,0.5,3,1.4,4s2.3,1.5,4,1.5c0.7,0,1.4-0.1,2-0.3s1.1-0.4,1.4-0.7s0.7-0.6,0.9-0.9s0.3-0.6,0.3-0.8
	c0-0.3-0.1-0.5-0.3-0.6s-0.4-0.2-0.7-0.2c-0.3,0-0.4,0.1-0.6,0.2c-0.3,0.3-0.6,0.6-0.8,0.7s-0.4,0.4-0.7,0.5s-0.5,0.3-0.8,0.4
	s-0.6,0.1-0.9,0.1c-0.5,0-0.9-0.1-1.3-0.4s-0.7-0.6-0.9-1s-0.4-1-0.4-1.6h5.2C121.8,22.5,122.4,22.4,122.8,22.2z M115.9,21
	c0.1-0.9,0.4-1.6,0.8-2s1-0.7,1.6-0.7c0.7,0,1.3,0.2,1.7,0.7s0.7,1.1,0.7,2H115.9z M185.8,16.4c-0.4,0-0.6,0.1-0.8,0.3
	s-0.4,0.6-0.5,1.1l-2.3,6.3l-2.2-6.1c-0.2-0.6-0.4-1-0.6-1.3s-0.5-0.4-0.9-0.4c-0.2,0-0.4,0.1-0.6,0.2s-0.3,0.3-0.5,0.4
	s-0.2,0.4-0.2,0.5c0,0.1,0,0.3,0.1,0.4s0.1,0.3,0.2,0.5s0.1,0.3,0.2,0.5l2.5,6.3c0.3,0.6,0.4,1,0.5,1.2s0.3,0.4,0.5,0.6
	s0.5,0.3,0.9,0.3c0.3,0,0.5-0.1,0.7-0.2s0.4-0.3,0.5-0.5s0.3-0.4,0.4-0.7s0.2-0.5,0.3-0.7l2.6-6.3c0.1-0.2,0.1-0.3,0.2-0.5
	s0.1-0.3,0.1-0.4s0.1-0.3,0.1-0.4c0-0.3-0.1-0.6-0.4-0.8S186.1,16.4,185.8,16.4z M162.3,16.4c-0.4,0-0.7,0.1-1,0.4s-0.4,0.7-0.4,1.2
	v7.6c0,0.5,0.1,0.9,0.4,1.2s0.6,0.4,1,0.4s0.7-0.1,1-0.4s0.4-0.7,0.4-1.2v-7.7c0-0.5-0.1-0.8-0.4-1.1S162.7,16.4,162.3,16.4z
	 M110.9,16.4c-0.3,0-0.6,0.1-0.7,0.2s-0.3,0.3-0.4,0.5s-0.2,0.5-0.3,0.9l-1.8,6l-1.6-5.5c-0.2-0.6-0.3-0.9-0.4-1.2s-0.2-0.4-0.5-0.6
	s-0.5-0.3-0.9-0.3c-0.4,0-0.7,0.1-0.9,0.3s-0.4,0.4-0.5,0.6s-0.2,0.6-0.4,1.2L101,24l-1.7-6c-0.2-0.6-0.3-1-0.5-1.3
	s-0.5-0.4-0.9-0.4c-0.3,0-0.6,0.1-0.8,0.3s-0.3,0.5-0.3,0.8c0,0.2,0.1,0.6,0.3,1.2l2.2,6.4c0.1,0.2,0.1,0.4,0.2,0.7s0.2,0.5,0.4,0.8
	s0.3,0.4,0.5,0.5s0.5,0.2,0.7,0.2c0.6,0,1-0.2,1.2-0.6s0.4-0.9,0.6-1.6l1.5-5.2l1.5,5.2c0.1,0.5,0.3,0.8,0.4,1.1s0.3,0.5,0.5,0.7
	s0.5,0.3,1,0.3c0.4,0,0.7-0.1,0.9-0.3s0.4-0.4,0.5-0.6s0.3-0.6,0.4-1.2l2.2-6.4c0.2-0.6,0.3-1,0.3-1.2c0-0.3-0.1-0.6-0.4-0.8
	S111.2,16.4,110.9,16.4z M197.2,23.6c-0.3,0-0.4,0.1-0.6,0.2c-0.3,0.3-0.6,0.6-0.8,0.7s-0.4,0.4-0.7,0.5s-0.5,0.3-0.8,0.4
	s-0.6,0.1-0.9,0.1c-0.5,0-0.9-0.1-1.3-0.4s-0.7-0.6-0.9-1s-0.4-1-0.4-1.6h5.2c0.7,0,1.2-0.1,1.6-0.3s0.6-0.6,0.6-1.3
	c0-0.7-0.2-1.4-0.6-2.1s-0.9-1.3-1.7-1.7s-1.6-0.7-2.7-0.7c-0.8,0-1.5,0.1-2.2,0.4s-1.2,0.6-1.7,1.1s-0.8,1.1-1,1.7
	s-0.4,1.4-0.4,2.2c0,1.7,0.5,3,1.4,4s2.3,1.5,4,1.5c0.7,0,1.4-0.1,2-0.3s1.1-0.4,1.4-0.7s0.7-0.6,0.9-0.9s0.3-0.6,0.3-0.8
	c0-0.3-0.1-0.5-0.3-0.6S197.5,23.6,197.2,23.6z M191.7,18.9c0.4-0.5,1-0.7,1.6-0.7c0.7,0,1.3,0.2,1.7,0.7s0.7,1.1,0.7,2h-4.8
	C191,20.1,191.2,19.4,191.7,18.9z M162.3,12.6c-0.4,0-0.7,0.1-0.9,0.4s-0.4,0.6-0.4,0.9c0,0.4,0.1,0.7,0.4,1s0.6,0.3,1,0.3
	c0.4,0,0.7-0.1,0.9-0.3s0.4-0.6,0.4-1c0-0.4-0.1-0.7-0.4-1S162.6,12.6,162.3,12.6z M139.2,17.1c-0.7-0.4-1.4-0.6-2.3-0.6
	c-0.8,0-1.4,0.1-1.9,0.4s-1,0.7-1.5,1.2V14c0-0.5-0.1-0.9-0.3-1.1s-0.5-0.4-0.9-0.4c-0.4,0-0.7,0.1-0.9,0.4s-0.3,0.7-0.3,1.2v11.6
	c0,0.5,0.1,0.9,0.3,1.1s0.5,0.4,0.9,0.4c0.4,0,0.7-0.1,0.9-0.4s0.4-0.6,0.4-1.1v-0.3c0.3,0.3,0.5,0.6,0.7,0.8s0.4,0.3,0.6,0.5
	s0.6,0.3,0.9,0.4s0.7,0.1,1.2,0.1c0.7,0,1.3-0.1,1.8-0.4s1-0.7,1.4-1.1s0.7-1.1,0.9-1.8s0.3-1.4,0.3-2.2c0-1.1-0.2-2-0.6-2.8
	S139.9,17.5,139.2,17.1z M137.9,24.3c-0.5,0.6-1.1,0.9-1.7,0.9c-0.8,0-1.4-0.3-1.9-0.9s-0.7-1.4-0.7-2.4c0-0.7,0.1-1.3,0.3-1.9
	s0.5-0.9,0.9-1.2s0.8-0.4,1.4-0.4c0.5,0,0.9,0.1,1.3,0.4s0.7,0.7,0.9,1.2s0.3,1.1,0.3,1.8C138.7,22.9,138.4,23.7,137.9,24.3z"/>
</svg>
