<svg xmlns="http://www.w3.org/2000/svg" xmlns:xlink="http://www.w3.org/1999/xlink" preserveAspectRatio="xMidYMid" width="30" height="30" viewBox="0 0 30 30">
  <path d="M12.000,23.000 L12.000,19.000 L24.000,19.000 L24.000,23.000 L12.000,23.000 ZM12.000,13.000 L24.000,13.000 L24.000,17.000 L12.000,17.000 L12.000,13.000 ZM12.000,7.000 L24.000,7.000 L24.000,11.000 L12.000,11.000 L12.000,7.000 ZM6.000,19.000 L10.000,19.000 L10.000,23.000 L6.000,23.000 L6.000,19.000 ZM6.000,13.000 L10.000,13.000 L10.000,17.000 L6.000,17.000 L6.000,13.000 ZM6.000,7.000 L10.000,7.000 L10.000,11.000 L6.000,11.000 L6.000,7.000 Z" class="cls-1"/>
</svg>
