<svg xmlns="http://www.w3.org/2000/svg"  viewBox="0 0 30 30">
  <path class="st0" d="M14.9,23.4c-1.6,0-3.3-0.6-4.5-1.9c-0.1-0.1-0.2-0.2-0.2-0.3l-4.8-4.8c-2.5-2.5-2.5-6.6,0-9.1
  	c2.5-2.5,6.6-2.5,9.1,0L14.9,8l0.5-0.5c2.5-2.5,6.6-2.5,9.1,0c2.5,2.5,2.5,6.6,0,9.1v0l-4.8,4.8c-0.1,0.1-0.1,0.2-0.2,0.3
  	C18.2,22.8,16.6,23.4,14.9,23.4z M9.9,7.6C8.7,7.6,7.6,8,6.8,8.8c-1.7,1.7-1.7,4.5,0,6.2l4.8,4.8c0.1,0.1,0.1,0.2,0.2,0.2
  	c1.8,1.8,4.6,1.8,6.3,0.1c0.1-0.1,0.1-0.2,0.2-0.2l4.9-4.9c1.7-1.7,1.7-4.5,0-6.2c-1.7-1.7-4.5-1.7-6.2,0l-2,2l-2-2
  	C12.1,8,11,7.6,9.9,7.6z"/>
</svg>
