<?xml version="1.0" encoding="utf-8"?>
<svg version="1.1" xmlns="http://www.w3.org/2000/svg" xmlns:xlink="http://www.w3.org/1999/xlink" x="0px" y="0px"
	 viewBox="0 0 16 19.5" style="enable-background:new 0 0 16 19.5;" xml:space="preserve">
<path d="M8.5,10.1V6h-1v4.1c-0.4,0.2-0.8,0.5-0.9,0.9H3.5v1h3.1c0.2,0.6,0.8,1,1.4,1c0.8,0,1.5-0.7,1.5-1.5
	C9.5,10.8,9.1,10.3,8.5,10.1z M8.5,3.5V2h1V0h-3v2h1v1.5C3.3,3.8,0,7.3,0,11.5c0,4.4,3.6,8,8,8s8-3.6,8-8C16,7.3,12.7,3.8,8.5,3.5z
	 M8,18.5c-3.9,0-7-3.1-7-7c0-3.9,3.1-7,7-7s7,3.1,7,7C15,15.4,11.9,18.5,8,18.5z"/>
</svg>
