<svg xmlns="http://www.w3.org/2000/svg" xmlns:xlink="http://www.w3.org/1999/xlink" preserveAspectRatio="xMidYMid" width="28" height="28.03" viewBox="0 0 28 28.03">
  <path d="M26.340,13.885 C25.863,13.885 25.376,14.089 24.888,14.498 L20.999,17.805 L20.999,17.346 C20.999,15.719 19.863,13.975 18.170,13.975 L5.999,13.975 C3.494,13.975 1.999,15.467 1.999,17.966 L1.999,23.983 C1.999,26.535 3.420,27.942 5.999,27.942 L18.170,27.942 C19.942,27.942 20.999,27.008 20.999,25.444 L20.999,24.111 L24.939,27.414 C25.422,27.822 25.906,28.028 26.376,28.028 C27.125,28.028 27.999,27.484 27.999,25.947 L27.999,15.971 C27.999,14.530 27.166,13.885 26.340,13.885 ZM25.999,25.696 L22.201,22.511 C21.725,22.109 21.214,21.897 20.722,21.897 C19.892,21.897 18.999,22.548 18.999,23.978 L18.999,25.444 C18.999,25.735 18.999,25.947 18.170,25.947 L5.999,25.947 C4.523,25.947 3.999,25.433 3.999,23.983 L3.999,17.966 C3.999,16.549 4.578,15.971 5.999,15.971 L18.170,15.971 C18.573,15.971 18.999,16.678 18.999,17.346 L18.999,17.875 C18.999,19.309 19.916,19.961 20.769,19.961 C21.270,19.961 21.785,19.752 22.267,19.349 L25.999,16.174 L25.999,25.696 ZM8.999,7.490 C8.999,5.016 6.981,3.002 4.499,3.002 C2.018,3.002 -0.001,5.016 -0.001,7.490 C-0.001,9.966 2.018,11.980 4.499,11.980 C6.981,11.980 8.999,9.966 8.999,7.490 ZM1.999,7.490 C1.999,6.116 3.120,4.996 4.499,4.996 C5.878,4.996 6.999,6.116 6.999,7.490 C6.999,8.866 5.878,9.986 4.499,9.986 C3.120,9.986 1.999,8.866 1.999,7.490 ZM16.999,11.980 C20.308,11.980 22.999,9.295 22.999,5.993 C22.999,2.693 20.308,0.008 16.999,0.008 C13.691,0.008 10.999,2.693 10.999,5.993 C10.999,9.295 13.691,11.980 16.999,11.980 ZM16.999,2.004 C19.205,2.004 20.999,3.795 20.999,5.993 C20.999,8.195 19.205,9.986 16.999,9.986 C14.793,9.986 12.999,8.195 12.999,5.993 C12.999,3.795 14.793,2.004 16.999,2.004 ZM7.999,17.966 C6.895,17.966 5.999,18.859 5.999,19.961 C5.999,21.062 6.895,21.957 7.999,21.957 C9.104,21.957 9.999,21.062 9.999,19.961 C9.999,18.859 9.104,17.966 7.999,17.966 Z" class="cls-1"/>
</svg>
