<?xml version="1.0" encoding="utf-8"?>
<svg version="1.1"  xmlns="http://www.w3.org/2000/svg" xmlns:xlink="http://www.w3.org/1999/xlink" x="0px" y="0px"
	 viewBox="-8.5 375.6 19 18.9" xml:space="preserve">
<path d="M10.5,394.4h-19l0-1.3c0,0,0-0.8,0.2-1.7c0.2-1.4,0.6-2.3,1.2-2.9c0.7-0.7,1.7-0.9,2.7-1.2
	c0.4-0.1,0.9-0.2,1.2-0.4c0.3-0.1,0.4-0.2,0.5-0.3c0.1-0.2,0-0.4-0.5-1.2c-0.3-0.4-0.6-0.9-0.8-1.4c-0.7-1.7-0.8-3.5-0.3-5.1
	c0.3-1.1,1-2,2-2.6c0.9-0.6,2.1-0.9,3.3-0.9s2.4,0.3,3.3,0.9c1,0.6,1.7,1.5,2,2.6c0.5,1.7,0.4,3.4-0.3,5.1c-0.2,0.5-0.5,1-0.8,1.4
	c-0.5,0.8-0.6,1-0.5,1.2c0,0,0.2,0.1,0.5,0.3c0.4,0.1,0.8,0.3,1.2,0.4c1,0.3,2,0.5,2.7,1.2c0.6,0.6,0.9,1.5,1.2,2.9
	c0.1,0.9,0.2,1.6,0.2,1.7L10.5,394.4z M-5.8,391.9H7.8c0,0,0,0,0,0c-0.2-1.2-0.4-1.5-0.4-1.5c-0.2-0.2-1-0.4-1.5-0.5
	c-1.3-0.4-2.9-0.8-3.4-2.1c-0.6-1.5,0.2-2.7,0.7-3.6c0.2-0.3,0.4-0.7,0.6-1c0.5-1.1,0.6-2.3,0.2-3.3c-0.5-1.4-2-1.7-2.9-1.7
	s-2.5,0.2-2.9,1.7c-0.3,1.1-0.3,2.2,0.2,3.3c0.1,0.3,0.4,0.7,0.6,1c0.6,0.9,1.4,2.1,0.7,3.6c-0.6,1.3-2.1,1.7-3.4,2.1
	c-0.5,0.1-1.4,0.4-1.5,0.5C-5.3,390.4-5.6,390.7-5.8,391.9C-5.8,391.9-5.8,391.9-5.8,391.9z"/>
</svg>
