<svg xmlns="http://www.w3.org/2000/svg" xmlns:xlink="http://www.w3.org/1999/xlink" viewBox="0 0 30 30">
  <defs>
    <filter x="6" y="5.813" width="17" height="18.188" filterUnits="userSpaceOnUse">
      <feFlood result="flood" flood-color="#bcbcbc"/>
      <feComposite result="composite" operator="in" in2="SourceGraphic"/>
      <feBlend result="blend" in2="SourceGraphic"/>
    </filter>
  </defs>
  <path d="M6,24V22a9.529,9.529,0,0,0,0-1,4.5,4.5,0,0,1,1-3,4.026,4.026,0,0,1,2.161-.846c0.467-.12.92-0.235,1.28-0.37a1.774,1.774,0,0,0,.551-0.288c0.166-.382.03-0.649-0.493-1.412a8.462,8.462,0,0,1-.783-1.316,6.524,6.524,0,0,1-.305-4.772,4.3,4.3,0,0,1,1.946-2.382,6.385,6.385,0,0,1,3.24-.8,6.387,6.387,0,0,1,3.241.8,4.3,4.3,0,0,1,1.946,2.382,6.528,6.528,0,0,1-.306,4.772,8.355,8.355,0,0,1-.778,1.308c-0.529.771-.665,1.039-0.554,1.341a1.32,1.32,0,0,0,.605.368,12.735,12.735,0,0,0,1.258.364A3.448,3.448,0,0,1,22,18a4.081,4.081,0,0,1,1,3c-0.006.468,0,.653,0,1v2H6ZM14.6,7.87c-0.957,0-2.637.227-3.137,1.743a4.523,4.523,0,0,0,.232,3.346,6.7,6.7,0,0,0,.6,1c0.588,0.857,1.474,2,.717,3.3A3.952,3.952,0,0,1,10,19c-1.038.17-1.991,0.388-2,1a1.969,1.969,0,0,1,0,1v1H21V21c-0.022-.406.009-0.711,0-1-0.026-.6-1.126-0.595-2-1-1.063-.493-2.3-0.568-2.821-1.748-0.6-1.371.128-2.437,0.716-3.294a6.637,6.637,0,0,0,.6-1,4.521,4.521,0,0,0,.232-3.346C17.233,8.1,15.553,7.87,14.6,7.87Z"/>
</svg>
