<svg xmlns="http://www.w3.org/2000/svg" xmlns:xlink="http://www.w3.org/1999/xlink" preserveAspectRatio="xMidYMid" width="30" height="30" viewBox="0 0 30 30">
  <path d="M19.000,23.000 L19.000,19.000 L23.000,19.000 L23.000,23.000 L19.000,23.000 ZM19.000,13.000 L23.000,13.000 L23.000,17.000 L19.000,17.000 L19.000,13.000 ZM19.000,7.000 L23.000,7.000 L23.000,11.000 L19.000,11.000 L19.000,7.000 ZM13.000,19.000 L17.000,19.000 L17.000,23.000 L13.000,23.000 L13.000,19.000 ZM13.000,13.000 L17.000,13.000 L17.000,17.000 L13.000,17.000 L13.000,13.000 ZM13.000,7.000 L17.000,7.000 L17.000,11.000 L13.000,11.000 L13.000,7.000 ZM7.000,19.000 L11.000,19.000 L11.000,23.000 L7.000,23.000 L7.000,19.000 ZM7.000,13.000 L11.000,13.000 L11.000,17.000 L7.000,17.000 L7.000,13.000 ZM7.000,7.000 L11.000,7.000 L11.000,11.000 L7.000,11.000 L7.000,7.000 Z" class="cls-1"/>
</svg>
