<svg xmlns="http://www.w3.org/2000/svg" xmlns:xlink="http://www.w3.org/1999/xlink" preserveAspectRatio="xMidYMid" width="32.142" height="28.928" viewBox="0 0 30 27">
  <path d="M9.999,14.184 C9.447,14.184 8.999,14.638 8.999,15.195 L8.999,25.315 C8.999,25.874 9.447,26.327 9.999,26.327 C10.552,26.327 10.999,25.874 10.999,25.315 L10.999,15.195 C10.999,14.638 10.552,14.184 9.999,14.184 ZM25.999,14.614 L25.999,10.904 C25.999,5.002 20.962,0.017 14.999,0.017 C8.934,0.017 3.999,4.818 3.999,10.722 L3.999,14.614 C2.322,15.699 -0.001,17.665 -0.001,20.256 C-0.001,24.219 5.446,26.733 5.678,26.837 C5.925,26.951 6.178,27.007 6.429,27.007 C7.324,27.007 7.999,26.280 7.999,25.315 L7.999,15.195 C7.999,14.230 7.324,13.505 6.429,13.505 C6.286,13.505 6.142,13.529 5.999,13.565 L5.999,10.722 C5.999,5.936 10.036,2.040 14.999,2.040 C19.878,2.040 23.999,6.099 23.999,10.904 L23.999,13.565 C23.856,13.529 23.713,13.505 23.570,13.505 C22.674,13.505 21.999,14.230 21.999,15.195 L21.999,25.315 C21.999,26.280 22.674,27.007 23.570,27.007 C23.821,27.007 24.073,26.951 24.321,26.837 C24.553,26.733 29.999,24.219 29.999,20.256 C29.999,17.665 27.676,15.699 25.999,14.614 ZM5.999,24.746 C4.549,23.976 1.999,22.217 1.999,20.256 C1.999,18.569 3.901,17.025 5.324,16.142 C5.468,16.090 5.599,16.019 5.705,15.913 C5.807,15.853 5.906,15.797 5.999,15.747 L5.999,24.746 ZM23.999,24.744 L23.999,15.767 C24.139,15.840 24.291,15.926 24.448,16.018 C24.512,16.062 24.573,16.107 24.646,16.135 C26.099,17.021 27.999,18.562 27.999,20.256 C27.999,22.207 25.451,23.970 23.999,24.744 ZM19.999,14.184 C19.447,14.184 18.999,14.638 18.999,15.195 L18.999,25.315 C18.999,25.874 19.447,26.327 19.999,26.327 C20.552,26.327 20.999,25.874 20.999,25.315 L20.999,15.195 C20.999,14.638 20.552,14.184 19.999,14.184 ZM19.971,7.219 C20.214,7.219 20.457,7.129 20.650,6.948 C21.056,6.570 21.080,5.928 20.705,5.518 C19.250,3.927 17.224,3.052 14.999,3.052 C12.747,3.052 10.781,3.875 9.314,5.429 C8.933,5.834 8.947,6.475 9.347,6.861 C9.746,7.246 10.378,7.232 10.761,6.828 C11.841,5.682 13.307,5.076 14.999,5.076 C16.684,5.076 18.150,5.705 19.237,6.893 C19.434,7.110 19.702,7.219 19.971,7.219 Z" class="cls-1"/>
</svg>
