<svg xmlns="http://www.w3.org/2000/svg" xmlns:xlink="http://www.w3.org/1999/xlink" preserveAspectRatio="xMidYMid" width="21.428" height="34.317" viewBox="0 0 20 32.03">
  <path d="M4.999,8.917 L7.999,8.917 C8.552,8.917 8.999,8.475 8.999,7.926 C8.999,7.378 8.552,6.934 7.999,6.934 L4.999,6.934 C4.447,6.934 3.999,7.378 3.999,7.926 C3.999,8.475 4.447,8.917 4.999,8.917 ZM4.999,12.887 L14.999,12.887 C15.552,12.887 15.999,12.443 15.999,11.895 C15.999,11.347 15.552,10.902 14.999,10.902 L4.999,10.902 C4.447,10.902 3.999,11.347 3.999,11.895 C3.999,12.443 4.447,12.887 4.999,12.887 ZM4.999,16.854 L14.999,16.854 C15.552,16.854 15.999,16.411 15.999,15.862 C15.999,15.314 15.552,14.870 14.999,14.870 L4.999,14.870 C4.447,14.870 3.999,15.314 3.999,15.862 C3.999,16.411 4.447,16.854 4.999,16.854 ZM18.292,4.871 L15.078,1.684 C14.104,0.718 12.332,-0.009 10.957,-0.009 L2.999,-0.009 C1.345,-0.009 -0.001,1.325 -0.001,2.967 L-0.001,21.798 C-0.001,23.438 1.345,24.774 2.999,24.774 L7.999,24.774 L7.999,22.788 L2.999,22.788 C2.447,22.788 1.999,22.345 1.999,21.798 L1.999,2.967 C1.999,2.420 2.447,1.974 2.999,1.974 L10.957,1.974 C10.970,1.974 10.986,1.976 10.999,1.976 L10.999,5.942 C10.999,7.584 12.345,8.917 13.999,8.917 L17.996,8.917 C17.996,8.932 17.999,8.946 17.999,8.961 L17.999,21.798 C17.999,22.345 17.551,22.788 16.999,22.788 L11.999,22.788 L11.999,24.774 L16.999,24.774 C18.653,24.774 19.999,23.438 19.999,21.798 L19.999,8.961 C19.999,7.595 19.266,5.836 18.292,4.871 ZM13.999,6.934 C13.447,6.934 12.999,6.491 12.999,5.942 L12.999,2.606 C13.260,2.754 13.494,2.918 13.664,3.086 L16.878,6.275 C17.049,6.444 17.213,6.675 17.363,6.934 L13.999,6.934 ZM12.421,27.890 L10.999,28.888 L10.999,19.812 C10.999,19.265 10.552,18.822 9.999,18.822 C9.446,18.822 8.999,19.265 8.999,19.812 L8.999,28.888 L7.577,27.890 C7.126,27.573 6.503,27.679 6.183,28.126 C5.864,28.573 5.971,29.193 6.421,29.511 L9.999,32.025 L13.577,29.511 C14.027,29.193 14.134,28.573 13.816,28.126 C13.496,27.679 12.871,27.573 12.421,27.890 Z" class="cls-1"/>
</svg>
