<?xml version="1.0" encoding="utf-8"?>
<svg version="1.1" xmlns="http://www.w3.org/2000/svg" xmlns:xlink="http://www.w3.org/1999/xlink" x="0px" y="0px"
	 viewBox="0 0 22 23" style="enable-background:new 0 0 22 23;" xml:space="preserve">
<path d="M17.5,14c-1.6,0-3,0.8-3.8,2.1l-5.2-2.6c0.3-0.6,0.5-1.3,0.5-2c0-0.7-0.2-1.4-0.5-2l5.2-2.6C14.5,8.2,15.9,9,17.5,9
	C20,9,22,7,22,4.5S20,0,17.5,0S13,2,13,4.5C13,5,13.1,5.6,13.3,6L8,8.7C7.2,7.7,5.9,7,4.5,7C2,7,0,9,0,11.5S2,16,4.5,16
	c1.4,0,2.7-0.7,3.5-1.7l5.3,2.6c-0.2,0.5-0.3,1-0.3,1.5c0,2.5,2,4.5,4.5,4.5s4.5-2,4.5-4.5S20,14,17.5,14z M17.5,1
	C19.4,1,21,2.6,21,4.5S19.4,8,17.5,8S14,6.4,14,4.5S15.6,1,17.5,1z M4.5,15C2.6,15,1,13.4,1,11.5S2.6,8,4.5,8S8,9.6,8,11.5
	S6.4,15,4.5,15z M17.5,22c-1.9,0-3.5-1.6-3.5-3.5s1.6-3.5,3.5-3.5s3.5,1.6,3.5,3.5S19.4,22,17.5,22z"/>
</svg>
