<?xml version="1.0" encoding="utf-8"?>
<svg version="1.1" xmlns="http://www.w3.org/2000/svg" xmlns:xlink="http://www.w3.org/1999/xlink" x="0px" y="0px"
	 viewBox="0 0 21 15" style="enable-background:new 0 0 21 15;" xml:space="preserve">
<path d="M21,2.5C21,1.1,19.9,0,18.5,0h-16C1.1,0,0,1.1,0,2.5v10C0,13.9,1.1,15,2.5,15h16c1.4,0,2.5-1.1,2.5-2.5V2.5z M14.8,7.2
	l5-5.5C19.9,2,20,2.2,20,2.5v10c0,0.2-0.1,0.4-0.1,0.6L14.8,7.2z M18.5,1c0.2,0,0.4,0,0.6,0.1l-6.9,7.2c-0.6,0.6-1.7,0.6-2.4,0.1
	L7.7,6.7l0,0l0,0L1.9,1.1C2.1,1,2.3,1,2.5,1H18.5z M1.2,13.1C1.1,12.9,1,12.7,1,12.5v-10C1,2.2,1.1,2,1.2,1.8l5.7,5.6L1.2,13.1z
	 M2.5,14c-0.2,0-0.4-0.1-0.6-0.2L7.7,8l1.4,1.1c0.5,0.4,1.1,0.6,1.8,0.6c0.7,0,1.4-0.2,1.9-0.7L14,8l5.1,5.8
	C19,13.9,18.7,14,18.5,14H2.5z"/>
</svg>
