<?xml version="1.0" encoding="utf-8"?>
<svg version="1.1" xmlns="http://www.w3.org/2000/svg" xmlns:xlink="http://www.w3.org/1999/xlink" x="0px" y="0px"
	 viewBox="0 0 18.6 18.6" style="enable-background:new 0 0 18.6 18.6;" xml:space="preserve">
<path d="M15.1,18.6c-0.3,0-0.5,0-0.8-0.2L10.9,17c-0.6-0.2-1.5-0.7-2-1.1l-2.8-1.9c-0.5-0.4-1.3-1.1-1.6-1.6L2.7,9.7
	c-0.3-0.5-0.8-1.4-1.1-2L0.2,4.3C-0.2,3.6,0,2.6,0.6,2l1.5-1.5c0.6-0.6,1.7-0.6,2.3,0l3,3c0.6,0.6,0.6,1.6,0,2.3L6.7,6.5
	c-0.2,0.2-0.3,0.7-0.1,1l1.2,1.9C8,10,8.6,10.6,9,10.8l2,1.2c0.3,0.2,0.8,0.1,1-0.1l0.8-0.8c0.6-0.6,1.6-0.6,2.3,0l3,3
	c0.3,0.3,0.5,0.7,0.5,1.1c0,0.4-0.2,0.8-0.5,1.1L16.6,18C16.2,18.4,15.7,18.6,15.1,18.6z M1.3,2.7C1.1,3,1,3.6,1.1,3.9l1.5,3.4
	c0.2,0.5,0.7,1.3,1,1.8l1.8,2.8c0.3,0.4,0.9,1.1,1.4,1.3l2.8,1.9c0.5,0.3,1.3,0.8,1.8,1l3.4,1.4c0.3,0.1,0.9,0,1.2-0.2l1.5-1.5
	c0.1-0.1,0.2-0.2,0.2-0.4c0-0.1-0.1-0.3-0.2-0.4l-3-3c-0.2-0.2-0.6-0.2-0.8,0l-0.8,0.8c-0.6,0.6-1.6,0.7-2.3,0.3l-2-1.2
	c-0.6-0.4-1.3-1.1-1.7-1.7L5.6,8.1C5.2,7.4,5.3,6.4,5.9,5.8L6.7,5c0.2-0.2,0.2-0.6,0-0.8l-3-3C3.4,1,3.1,1,2.9,1.2L1.3,2.7z"/>
</svg>
