<svg xmlns="http://www.w3.org/2000/svg" xmlns:xlink="http://www.w3.org/1999/xlink" preserveAspectRatio="xMidYMid" width="23.571" height="29.999" viewBox="0 0 22 28">
  <path d="M20.664,0.009 C20.405,0.009 20.008,0.089 19.587,0.469 L11.079,7.131 C10.851,7.336 10.306,7.546 9.999,7.546 L1.999,7.546 C0.897,7.546 -0.001,8.451 -0.001,9.561 L-0.001,17.622 C-0.001,18.733 0.897,19.636 1.999,19.636 L5.999,19.636 L5.999,17.622 L1.999,17.622 L1.999,9.561 L9.999,9.561 C10.800,9.561 11.815,9.172 12.411,8.632 L19.999,2.800 L19.999,23.593 L12.405,18.473 C11.794,17.981 10.781,17.622 9.999,17.622 L9.999,19.636 C10.320,19.636 10.904,19.845 11.156,20.046 L19.593,25.847 C20.004,26.179 20.384,26.247 20.630,26.247 C21.311,26.247 21.999,25.710 21.999,24.682 L21.999,1.556 C21.999,0.540 21.328,0.009 20.664,0.009 ZM10.421,23.810 L8.999,24.826 L8.999,15.606 C8.999,15.050 8.552,14.600 7.999,14.600 C7.447,14.600 6.999,15.050 6.999,15.606 L6.999,24.826 L5.577,23.810 C5.126,23.490 4.503,23.595 4.183,24.050 C3.864,24.506 3.971,25.134 4.421,25.457 L7.999,28.011 L11.577,25.457 C12.027,25.134 12.134,24.506 11.816,24.050 C11.495,23.595 10.872,23.490 10.421,23.810 Z" class="cls-1"/>
</svg>
