<?xml version="1.0" encoding="utf-8"?>
<svg version="1.1" xmlns="http://www.w3.org/2000/svg" xmlns:xlink="http://www.w3.org/1999/xlink" x="0px" y="0px"
	 viewBox="0 0 15 20.8" style="enable-background:new 0 0 15 20.8;" xml:space="preserve">
<path d="M7.5,4C5.6,4,4,5.6,4,7.5S5.6,11,7.5,11S11,9.4,11,7.5S9.4,4,7.5,4z M7.5,10C6.1,10,5,8.9,5,7.5S6.1,5,7.5,5S10,6.1,10,7.5
	S8.9,10,7.5,10z M7.5,0C3.4,0,0,3.4,0,7.5c0,3.3,2.1,6,5,7.1l2.5,6.3l2.5-6.3c2.9-1,5-3.8,5-7.1C15,3.4,11.6,0,7.5,0z M7.5,18.1
	l-1.3-3.3C6.6,15,7.1,15,7.5,15c0.4,0,0.9,0,1.3-0.1L7.5,18.1z M7.5,14C3.9,14,1,11.1,1,7.5C1,3.9,3.9,1,7.5,1S14,3.9,14,7.5
	C14,11.1,11.1,14,7.5,14z"/>
</svg>
