<svg xmlns="http://www.w3.org/2000/svg" xmlns:xlink="http://www.w3.org/1999/xlink" preserveAspectRatio="xMidYMid" width="50" height="50" viewBox="0 0 50 50">
  <defs>
    <style>
      .cls-1 {
        fill: #000;
        filter: url(#color-overlay-1);
        fill-rule: evenodd;
      }
    </style>

    <filter id="color-overlay-1" filterUnits="userSpaceOnUse">
      <feFlood flood-color="#fff"/>
      <feComposite operator="in" in2="SourceGraphic"/>
      <feBlend in2="SourceGraphic" result="solidFill"/>
    </filter>
  </defs>
  <path d="M32.887,27.196 C32.508,26.816 32.047,26.627 31.505,26.627 C30.936,26.627 30.448,26.843 30.042,27.277 C30.082,27.318 30.211,27.443 30.428,27.653 C30.645,27.863 30.791,28.009 30.865,28.090 C30.940,28.171 31.041,28.301 31.170,28.477 C31.299,28.653 31.387,28.825 31.435,28.995 C31.482,29.164 31.506,29.351 31.506,29.554 C31.506,30.096 31.316,30.557 30.937,30.936 C30.557,31.315 30.097,31.505 29.554,31.505 C29.351,31.505 29.165,31.481 28.995,31.434 C28.826,31.387 28.653,31.299 28.477,31.170 C28.301,31.041 28.172,30.939 28.091,30.864 C28.009,30.790 27.864,30.644 27.654,30.427 C27.444,30.211 27.318,30.082 27.277,30.041 C26.830,30.461 26.607,30.956 26.607,31.525 C26.607,32.067 26.796,32.527 27.176,32.907 L31.363,37.115 C31.729,37.481 32.189,37.664 32.745,37.664 C33.287,37.664 33.748,37.487 34.128,37.135 L37.116,34.167 C37.495,33.789 37.685,33.334 37.685,32.806 C37.685,32.264 37.495,31.803 37.115,31.424 L32.887,27.196 ZM44.000,-0.000 L6.000,-0.000 C2.700,-0.000 -0.000,2.700 -0.000,6.000 L-0.000,44.000 C-0.000,47.300 2.700,50.000 6.000,50.000 L44.000,50.000 C47.300,50.000 50.000,47.300 50.000,44.000 L50.000,6.000 C50.000,2.700 47.300,-0.000 44.000,-0.000 ZM39.860,36.932 L36.871,39.900 C35.746,41.025 34.371,41.587 32.745,41.587 C31.105,41.587 29.723,41.011 28.598,39.859 L24.410,35.652 C23.285,34.527 22.723,33.152 22.723,31.525 C22.723,29.858 23.319,28.442 24.512,27.277 L22.723,25.488 C21.558,26.680 20.148,27.277 18.495,27.277 C16.869,27.277 15.486,26.707 14.348,25.569 L10.120,21.341 C8.981,20.203 8.412,18.820 8.412,17.194 C8.412,15.568 8.988,14.193 10.140,13.068 L13.128,10.100 C14.253,8.975 15.628,8.412 17.255,8.412 C18.894,8.412 20.277,8.988 21.402,10.140 L25.589,14.348 C26.714,15.473 27.277,16.848 27.277,18.475 C27.277,20.142 26.680,21.558 25.488,22.723 L27.277,24.512 C28.442,23.319 29.851,22.723 31.505,22.723 C33.131,22.723 34.513,23.293 35.651,24.431 L39.880,28.659 C41.018,29.798 41.587,31.180 41.588,32.806 C41.588,34.432 41.011,35.807 39.860,36.932 ZM18.637,12.885 C18.258,12.505 17.797,12.316 17.255,12.316 C16.726,12.316 16.266,12.498 15.872,12.864 L12.884,15.832 C12.505,16.212 12.315,16.666 12.315,17.194 C12.315,17.736 12.505,18.197 12.884,18.577 L17.113,22.805 C17.478,23.171 17.939,23.354 18.495,23.354 C19.064,23.354 19.552,23.143 19.959,22.724 C19.918,22.683 19.789,22.558 19.572,22.347 C19.355,22.137 19.210,21.992 19.135,21.911 C19.061,21.829 18.959,21.700 18.831,21.524 C18.702,21.348 18.614,21.175 18.566,21.006 C18.519,20.836 18.495,20.650 18.495,20.447 C18.495,19.905 18.685,19.444 19.064,19.064 C19.444,18.685 19.905,18.495 20.447,18.495 C20.650,18.495 20.836,18.519 21.006,18.566 C21.175,18.614 21.348,18.702 21.524,18.831 C21.700,18.960 21.829,19.061 21.910,19.136 C21.992,19.210 22.137,19.356 22.347,19.573 C22.557,19.790 22.682,19.918 22.723,19.959 C23.170,19.538 23.394,19.044 23.394,18.475 C23.394,17.933 23.204,17.472 22.825,17.092 L18.637,12.885 Z" class="cls-1"/>
</svg>
